{"title":"The Romancing Star (1987) aka Cheng chong chui lui chai","uid":14159779,"size":836095266,"categoryP":"video","categoryS":"movies","magnet":"?xt=urn:btih:dbd53ab3e1a2b77f260abd328841aef1091e3148&amp;dn=The+Romancing+Star+%281987%29+aka+Cheng+chong+chui+lui+chai&amp;tr=udp%3A%2F%2Ftracker.leechers-paradise.org%3A6969&amp;tr=udp%3A%2F%2Fzer0day.ch%3A1337&amp;tr=udp%3A%2F%2Fopen.demonii.com%3A1337&amp;tr=udp%3A%2F%2Ftracker.coppersurfer.tk%3A6969&amp;tr=udp%3A%2F%2Fexodus.desync.com%3A6969","seeders":0,"leechers":1,"uploader":null,"files":1,"time":1459707274,"description":"Ah Fat, foul-mouthed, along with his two close buddies, Traffic Light and Ugly, are working in a garage. Their boss, Ken, is harsh and stingy. However, a warm and close friendship has been established amongh the four. In order for Ah Fat to get over his heartbreak at getting dumped by his girlfriend, Ken suggests a tour to Penang to cheer him up. They come across two beautiful girls, Tung Tung and Man Chi, strolling leisurely on the beach as if they were very wealthy. Since then they decide who's whose. And Ah Fat, the winner, chooses Tung Tung to be his sole target. By the rules of the game, Ken, Traffic Light and Ugly have to compete to see who in the end will win the heart of Man Chi.\r\n \nhttps://www.themoviedb.org/movie/147950\r\n\r\nFormat                                   : AVI\r\nFormat/Info                              : Audio Video Interleave\r\nFile size                                : 797 MiB\r\nDuration                                 : 1h 38mn\r\nOverall bit rate                         : 1 136 Kbps\r\nWriting application                      : MediaCoder 0.6\r\n\r\nVideo\r\nID                                       : 0\r\nFormat                                   : MPEG-4 Visual\r\nFormat profile                           :   \r\nFormat settings, BVOP                    : No\r\nFormat settings, QPel                    : No\r\nFormat settings, GMC                     : No warppoints\r\nFormat settings, Matrix                  : Default (H.263)\r\nCodec ID                                 : XVID\r\nCodec ID/Hint                            : XviD\r\nDuration                                 : 1h 38mn\r\nBit rate                                 : 747 Kbps\r\nWidth                                    : 640 pixels\r\nHeight                                   : 352 pixels\r\nDisplay aspect ratio                     : 16:9\r\nFrame rate                               : 23.976 (23976/1000) fps\r\nColor space                              : YUV\r\nChroma subsampling                       : 4:2:0\r\nBit depth                                : 8 bits\r\nScan type                                : Progressive\r\nCompression mode                         : Lossy\r\nBits/(Pixel*Frame)                       : 0.138\r\nStream size                              : 524 MiB (66%)\r\nWriting library                          : XviD 1.2.1 (UTC 2008-12-04)\r\n\r\nAudio\r\nID                                       : 1\r\nFormat                                   : AC-3\r\nFormat/Info                              : Audio Coding 3\r\nMode extension                           : CM (complete main)\r\nFormat settings, Endianness              : Big\r\nCodec ID                                 : 2000\r\nDuration                                 : 1h 38mn\r\nBit rate mode                            : Constant\r\nBit rate                                 : 384 Kbps\r\nChannel(s)                               : 6 channels\r\nChannel positions                        : Front: L C R, Side: L R, LFE\r\nSampling rate                            : 48.0 KHz\r\nFrame rate                               : 31.250 fps (1536 spf)\r\nCompression mode                         : Lossy\r\nStream size                              : 270 MiB (34%)\r\nAlignment                                : Split accross interleaves\r\nInterleave, duration                     : 500 ms (11.99 video frames)\r\nInterleave, preload duration             : 500 ms","torrent":{"xt":"urn:btih:dbd53ab3e1a2b77f260abd328841aef1091e3148","amp;dn":"The+Romancing+Star+%281987%29+aka+Cheng+chong+chui+lui+chai","amp;tr":["udp%3A%2F%2Ftracker.leechers-paradise.org%3A6969","udp%3A%2F%2Fzer0day.ch%3A1337","udp%3A%2F%2Fopen.demonii.com%3A1337","udp%3A%2F%2Ftracker.coppersurfer.tk%3A6969","udp%3A%2F%2Fexodus.desync.com%3A6969"],"infoHash":"dbd53ab3e1a2b77f260abd328841aef1091e3148","infoHashBuffer":{"type":"Buffer","data":[219,213,58,179,225,162,183,127,38,10,189,50,136,65,174,241,9,30,49,72]},"announce":[],"urlList":[]}}